<?xml version="1.0" encoding="utf-8"?>
<!DOCTYPE svg PUBLIC "-//W3C//DTD SVG 1.1//EN" "http://www.w3.org/Graphics/SVG/1.1/DTD/svg11.dtd">
<svg style="width:308px;height:308px;" version="1.1" id="图形" xmlns="http://www.w3.org/2000/svg" xmlns:xlink="http://www.w3.org/1999/xlink" x="0px" y="0px" width="1024px" height="1024px" viewBox="0 0 1024 1024" enable-background="new 0 0 1024 1024" xml:space="preserve">
  <path class="svgpath" data-index="path_0" fill="#272636" d="M500.494 603.55 334.402 769.642l72.04 72.039c6.003 6.004 9.505 14.008 9.505 22.513 0 17.51-14.508 32.018-32.018 32.018L159.807 896.212c-17.51 0-32.018-14.508-32.018-32.018L127.789 640.07c0-17.51 14.508-32.018 32.018-32.018 8.505 0 16.509 3.502 22.512 9.505l72.04 72.04L420.45 523.506c3.001-3.001 7.504-5.002 11.506-5.002s8.505 2.001 11.506 5.002l57.031 57.032c3.001 3.001 5.003 7.504 5.003 11.506S503.495 600.549 500.494 603.55zM896.211 383.93c0 17.51-14.508 32.018-32.018 32.018-8.505 0-16.509-3.502-22.513-9.505l-72.039-72.04L603.55 500.494c-3.001 3.001-7.504 5.002-11.506 5.002s-8.505-2.001-11.506-5.002l-57.032-57.032c-3.001-3.001-5.002-7.504-5.002-11.506s2.001-8.505 5.002-11.506l166.092-166.091-72.04-72.04c-6.003-6.003-9.505-14.007-9.505-22.512 0-17.51 14.508-32.018 32.018-32.018l224.123 0c17.51 0 32.018 14.508 32.018 32.018L896.212 383.93z" />

</svg>
