<?xml version="1.0" encoding="utf-8"?>
<!DOCTYPE svg PUBLIC "-//W3C//DTD SVG 1.1//EN" "http://www.w3.org/Graphics/SVG/1.1/DTD/svg11.dtd">
<svg style="width:308px;height:308px;" version="1.1" id="图形" xmlns="http://www.w3.org/2000/svg" xmlns:xlink="http://www.w3.org/1999/xlink" x="0px" y="0px" width="1280px" height="1024px" viewBox="0 0 1280 1024" enable-background="new 0 0 1280 1024" xml:space="preserve">
  <path class="svgpath" data-index="path_0" fill="#272636" d="M480 112 480 80 208 80 208 352 240 352 240 134.6 499.2 393.9 521.9 371.2 262.6 112Z" />
<path class="svgpath" data-index="path_1" fill="#272636" d="M1040 889.4 778.5 627.9 755.9 650.5 1017.4 912 800 912 800 944 1072 944 1072 672 1040 672Z" />
<path class="svgpath" data-index="path_2" fill="#272636" d="M800 80 800 112 1029 112 755 374.2 777.1 397.3 1040 145.8 1040 352 1072 352 1072 80Z" />
<path class="svgpath" data-index="path_3" fill="#272636" d="M494.3 624.9 240 888.1 240 672 208 672 208 944 480 944 480 912 261.4 912 517.3 647.1Z" />

</svg>
