<?xml version="1.0" encoding="utf-8"?>
<!DOCTYPE svg PUBLIC "-//W3C//DTD SVG 1.1//EN" "http://www.w3.org/Graphics/SVG/1.1/DTD/svg11.dtd">
<svg style="width:308px;height:308px;" version="1.1" id="图形" xmlns="http://www.w3.org/2000/svg" xmlns:xlink="http://www.w3.org/1999/xlink" x="0px" y="0px" width="1024px" height="1024px" viewBox="0 0 1024 1024" enable-background="new 0 0 1024 1024" xml:space="preserve">
  <path class="svgpath" data-index="path_0" fill="#272636" d="M620.6208 608.9728l170.1888 20.0704c10.5728 1.408 20.0704-6.2976 21.3248-16.8192 1.2544-10.5472-6.2976-20.0704-16.8192-21.3248l-224.4864-26.4704c-5.8624-0.8192-11.6736 1.3312-15.8208 5.4784-4.1728 4.1472-6.1952 9.984-5.4784 15.8208L576 810.24c1.152 9.7536 9.4464 16.9472 19.0464 16.9472 0.7424 0 1.5104-0.0256 2.2784-0.128 10.5216-1.2288 18.0736-10.7776 16.8192-21.3248l-19.9168-168.8832 333.4656 333.4656c3.7376 3.7376 8.6528 5.632 13.568 5.632s9.8304-1.8688 13.568-5.632c7.5008-7.5008 7.5008-19.6608 0-27.1616L620.6208 608.9728z" />
<path class="svgpath" data-index="path_1" fill="#272636" d="M404.0448 202.2656c-10.5216 1.2288-18.0736 10.7776-16.8192 21.3248l20.1728 171.0848L75.8784 63.1296c-7.5008-7.5008-19.6608-7.5008-27.1616 0s-7.5008 19.6608 0 27.1616L378.5472 420.096l-168.0128-19.8144c-10.496-1.3568-20.0704 6.2976-21.3248 16.8192-1.2544 10.5472 6.2976 20.0704 16.8192 21.3248l224.4864 26.4704c0.7424 0.1024 1.5104 0.128 2.2528 0.128 5.0688 0 9.9584-1.9968 13.568-5.632 4.1728-4.1472 6.1952-9.984 5.4784-15.8208l-26.4704-224.4864C424.1152 208.5376 414.592 200.8576 404.0448 202.2656z" />
<path class="svgpath" data-index="path_2" fill="#272636" d="M963.712 63.1296c-7.5008-7.5008-19.6608-7.5008-27.1616 0L599.7824 399.8976l20.7872-176.3072c1.2544-10.5472-6.2976-20.0704-16.8192-21.3248-10.5984-1.3568-20.0704 6.2976-21.3248 16.8192l-26.4704 224.4864c-0.6912 5.8368 1.3312 11.6736 5.4784 15.8208 3.6352 3.6352 8.5248 5.632 13.568 5.632 0.7424 0 1.5104-0.0256 2.2528-0.128l224.512-26.4704c10.5216-1.2288 18.0736-10.7776 16.8192-21.3248-1.2288-10.5216-10.88-18.2016-21.3248-16.8192l-162.7904 19.1744L963.712 90.2656C971.2128 82.7648 971.2128 70.6304 963.712 63.1296z" />
<path class="svgpath" data-index="path_3" fill="#272636" d="M430.5152 564.4288l-224.4864 26.4704c-10.5216 1.2288-18.0736 10.7776-16.8192 21.3248 1.2288 10.5216 10.7776 18.176 21.3248 16.8192l172.672-20.352L48.7168 943.1552c-7.5008 7.5008-7.5008 19.6608 0 27.1616 3.7376 3.7376 8.6528 5.632 13.568 5.632s9.8304-1.8688 13.568-5.632l330.9824-330.9824-19.6352 166.4256c-1.2544 10.5472 6.2976 20.0704 16.8192 21.3248 0.768 0.1024 1.536 0.128 2.2784 0.128 9.6 0 17.8944-7.1936 19.0464-16.9472l26.4704-224.4864c0.6912-5.8368-1.3312-11.6736-5.4784-15.8208C442.1888 565.76 436.3264 563.6352 430.5152 564.4288z" />

</svg>
